<svg width="112" height="37" viewBox="0 0 112 37" fill="none" xmlns="http://www.w3.org/2000/svg">
<path d="M13.304 20.64H11.144C11.144 23.008 11.144 25.248 11.144 27.36C11.176 29.44 11.208 31.488 11.24 33.504H13.496C18.904 33.504 21.608 31.392 21.608 27.168C21.608 24.96 20.936 23.328 19.592 22.272C18.248 21.184 16.152 20.64 13.304 20.64ZM13.784 6.624H11.24C11.208 8.672 11.176 10.704 11.144 12.72C11.144 14.736 11.144 16.592 11.144 18.288H13.112C15.576 18.288 17.384 17.792 18.536 16.8C19.688 15.808 20.264 14.288 20.264 12.24C20.264 10.256 19.72 8.832 18.632 7.968C17.576 7.072 15.96 6.624 13.784 6.624ZM0.872 6.432V4.176H15.56C19.24 4.176 21.96 4.896 23.72 6.336C25.48 7.776 26.36 9.6 26.36 11.808C26.36 13.472 25.784 14.992 24.632 16.368C23.48 17.712 21.464 18.656 18.584 19.2C21.976 19.616 24.408 20.544 25.88 21.984C27.352 23.424 28.088 25.152 28.088 27.168C28.088 28.224 27.848 29.28 27.368 30.336C26.92 31.36 26.168 32.304 25.112 33.168C24.088 34.032 22.68 34.72 20.888 35.232C19.128 35.744 16.92 36 14.264 36H0.872V33.744L4.904 33.312C4.968 31.296 5 29.264 5 27.216C5 25.168 5 23.104 5 21.024V19.152C5 17.104 5 15.056 5 13.008C5 10.96 4.968 8.912 4.904 6.864L0.872 6.432ZM31.3831 36V34.032L34.4551 33.456C34.4871 32.24 34.5031 30.944 34.5031 29.568C34.5031 28.16 34.5031 26.944 34.5031 25.92V23.376C34.5031 22.064 34.4871 21.024 34.4551 20.256C34.4551 19.456 34.4231 18.576 34.3591 17.616L30.9991 17.184V15.36L39.0151 12.336L39.7831 12.816L40.2631 18.48C40.9991 16.496 41.9911 14.976 43.2391 13.92C44.4871 12.864 45.7351 12.336 46.9831 12.336C47.8471 12.336 48.6311 12.56 49.3351 13.008C50.0711 13.456 50.5511 14.096 50.7751 14.928C50.7431 16.112 50.4551 17.04 49.9111 17.712C49.3671 18.352 48.6151 18.672 47.6551 18.672C46.5031 18.672 45.4151 18.096 44.3911 16.944L43.9591 16.464C42.2631 17.872 41.0471 19.856 40.3111 22.416V25.92C40.3111 26.912 40.3111 28.096 40.3111 29.472C40.3111 30.816 40.3271 32.08 40.3591 33.264L44.2951 34.032V36H31.3831ZM52.5204 36V34.032L55.6884 33.408C55.7204 32.224 55.7364 30.944 55.7364 29.568C55.7364 28.16 55.7364 26.944 55.7364 25.92V23.664C55.7364 22.352 55.7204 21.264 55.6884 20.4C55.6884 19.504 55.6564 18.576 55.5924 17.616L52.1844 17.184V15.36L60.8244 12.336L61.5924 12.816L61.4484 19.584V25.92C61.4484 26.944 61.4484 28.16 61.4484 29.568C61.4484 30.944 61.4644 32.24 61.4964 33.456L64.4244 34.032V36H52.5204ZM58.5684 7.872C57.5444 7.872 56.6804 7.552 55.9764 6.912C55.2724 6.272 54.9204 5.456 54.9204 4.464C54.9204 3.44 55.2724 2.608 55.9764 1.968C56.6804 1.328 57.5444 1.008 58.5684 1.008C59.5924 1.008 60.4404 1.328 61.1124 1.968C61.8164 2.608 62.1684 3.44 62.1684 4.464C62.1684 5.456 61.8164 6.272 61.1124 6.912C60.4404 7.552 59.5924 7.872 58.5684 7.872ZM78.8071 14.64C78.0391 14.64 77.2711 14.896 76.5031 15.408C75.7671 15.888 75.1271 16.688 74.5831 17.808C74.0711 18.928 73.7511 20.448 73.6231 22.368H80.1991C81.3511 22.368 82.1191 22.128 82.5031 21.648C82.8871 21.168 83.0791 20.496 83.0791 19.632C83.0791 18.16 82.6631 16.96 81.8311 16.032C80.9991 15.104 79.9911 14.64 78.8071 14.64ZM78.8071 36.672C76.5671 36.672 74.5991 36.192 72.9031 35.232C71.2071 34.272 69.8791 32.896 68.9191 31.104C67.9591 29.28 67.4791 27.12 67.4791 24.624C67.4791 22.064 68.0231 19.872 69.1111 18.048C70.2311 16.192 71.6711 14.784 73.4311 13.824C75.2231 12.832 77.1271 12.336 79.1431 12.336C81.0311 12.336 82.6791 12.736 84.0871 13.536C85.4951 14.336 86.5831 15.456 87.3511 16.896C88.1511 18.336 88.5511 20.032 88.5511 21.984C88.5511 23.008 88.4551 23.888 88.2631 24.624H73.5751C73.7031 27.376 74.4231 29.44 75.7351 30.816C77.0791 32.192 78.7591 32.88 80.7751 32.88C82.1831 32.88 83.3671 32.608 84.3271 32.064C85.3191 31.488 86.2151 30.752 87.0151 29.856L88.4071 31.104C87.4791 32.864 86.1991 34.24 84.5671 35.232C82.9671 36.192 81.0471 36.672 78.8071 36.672ZM91.709 36V34.032L94.925 33.408C94.957 32.16 94.973 30.912 94.973 29.664C95.005 28.416 95.021 27.168 95.021 25.92V15.936H91.469V13.44L95.165 12.96C95.421 10.592 95.805 8.688 96.317 7.248C96.861 5.776 97.693 4.48 98.813 3.36C99.901 2.272 101.085 1.504 102.365 1.056C103.677 0.575998 104.941 0.335999 106.157 0.335999C107.405 0.335999 108.509 0.559999 109.469 1.008C110.461 1.456 111.085 2.24 111.341 3.36C111.309 4.096 111.005 4.72 110.429 5.232C109.885 5.744 109.133 6 108.173 6C106.797 6 105.501 5.2 104.285 3.6L103.421 2.736C103.325 2.8 103.213 2.896 103.085 3.024C102.221 3.888 101.597 5.104 101.213 6.672C100.829 8.24 100.669 10.352 100.733 13.008H106.637V15.936H100.829V25.92C100.829 27.136 100.829 28.368 100.829 29.616C100.861 30.832 100.893 32.064 100.925 33.312L104.957 34.032V36H91.709Z" fill="#B80000"/>
</svg>
